<svg xmlns="http://www.w3.org/2000/svg" viewBox="0 0 68.57 16.28"><g id="Camada_2" data-name="Camada 2"><g id="Camada_1-2" data-name="Camada 1"><path d="M8.82,7.9h.7a1,1,0,0,1,.24,0s.08.06.12.1l-.14.12s-.06,0-.08,0a5.16,5.16,0,0,1-.78.08.22.22,0,0,0-.24.18l-.12.36c-.26.7-.52,1.43-.72,2.15a21.57,21.57,0,0,0-.56,2.24A16.18,16.18,0,0,0,7,14.87a8.72,8.72,0,0,0-.06,1V16c0,.08-.06.1-.14.1s-.1,0-.1-.12a2.55,2.55,0,0,0,0-.4,15.54,15.54,0,0,1,.16-1.94c.08-.64.22-1.26.36-1.88s.42-1.43.64-2.13l.44-1.28a17.33,17.33,0,0,0-3.34,1c-.22.08-.44.2-.68.28A.49.49,0,0,0,3.9,10c-.1.49-.18,1-.26,1.45,0,.32-.12.66-.14,1a3.13,3.13,0,0,0,.06,1.06.34.34,0,0,1,0,.2.21.21,0,0,1-.08.16c-.1,0-.18,0-.22-.12s0-.1,0-.16c0-.62,0-1.23,0-1.85a6.1,6.1,0,0,1,.28-1.59.61.61,0,0,0,0-.19,12.35,12.35,0,0,0-2.1,1.27,2,2,0,0,0-.74.8.67.67,0,0,1-.12.2.42.42,0,0,1-.48.08A.39.39,0,0,1,0,11.81a1,1,0,0,1,.42-.46A17.8,17.8,0,0,1,3.32,9.68a.72.72,0,0,0,.48-.56A23.14,23.14,0,0,1,5,5.88C5.3,5,5.74,4.24,6.14,3.44a1.22,1.22,0,0,1,.24-.3.29.29,0,0,1,.4-.06A.38.38,0,0,1,7,3.44a.33.33,0,0,1-.24.3c-.3,0-.42.26-.56.46a11.77,11.77,0,0,0-.68,1.32,16,16,0,0,0-.68,1.6c-.26.64-.48,1.32-.72,2,0,0,0,.1,0,.14a.3.3,0,0,0,.14,0,18.61,18.61,0,0,1,3.1-1c.28-.08.56-.12.84-.18a.26.26,0,0,0,.22-.18c.18-.48.36-1,.56-1.42.3-.82.62-1.64.94-2.44l1-2.48A5.6,5.6,0,0,0,11.26.28.32.32,0,0,1,11.54,0c.12,0,.32.08.34.2a.59.59,0,0,1,0,.42A11.49,11.49,0,0,0,11,2.36c-.24.54-.44,1.1-.64,1.64-.38.94-.76,1.86-1.12,2.8Z"/><path d="M10.5,11a.89.89,0,0,1-.81-.76,1.47,1.47,0,0,1,0-.36,2.73,2.73,0,0,1,.06-.5A3.53,3.53,0,0,1,10.3,8s0,0,.07-.07a.46.46,0,0,1,.34-.15l.13,0a.41.41,0,0,1,.18.36.34.34,0,0,1,0,.1,1.63,1.63,0,0,1-.43.82c-.15.15-.32.27-.48.41a.39.39,0,0,0-.13.2,1.23,1.23,0,0,0,0,.27,1.53,1.53,0,0,0,.07.47c.07.24.19.37.38.39a.63.63,0,0,0,.29-.05,1.44,1.44,0,0,0,.49-.26A5.83,5.83,0,0,0,12.6,9a.08.08,0,0,1,.08,0,.15.15,0,0,1,.15.13.09.09,0,0,1,0,.05l-.16.24a5.37,5.37,0,0,1-1.17,1.21,1.9,1.9,0,0,1-.64.36A1.06,1.06,0,0,1,10.5,11Zm-.41-1.93a0,0,0,0,0,0,0h0l.08,0A.27.27,0,0,1,10.29,9a1.39,1.39,0,0,0,.37-.63,1.11,1.11,0,0,0,.05-.24.35.35,0,0,0,0-.06h0s-.05.06-.07.08h0A3,3,0,0,0,10.1,9S10.09,9.07,10.09,9.08Z"/><path d="M12.39,10.38v-.06a12,12,0,0,1,.2-2c0-.12.06-.31.21-.31l.1,0a.12.12,0,0,1,.08.12.47.47,0,0,1,0,.16,6.7,6.7,0,0,0-.26,1.84v.16c0,.06,0,.17,0,.18h0a2.36,2.36,0,0,0,.13-.23l0,0c.26-.5.53-1,.8-1.5A1.35,1.35,0,0,1,14,8.43a.38.38,0,0,1,.25-.11.39.39,0,0,1,.27.13,1.43,1.43,0,0,1,.16.24c.11.22.22.45.34.67a.92.92,0,0,0,.89.6,1.69,1.69,0,0,0,.48-.07,2.15,2.15,0,0,0,1.09-.83A.15.15,0,0,1,17.57,9s.06,0,.06.07a.35.35,0,0,1-.08.19,2.94,2.94,0,0,1-.77.72l0,0a1.55,1.55,0,0,1-.73.18,2.3,2.3,0,0,1-.45-.05,1.16,1.16,0,0,1-.72-.53c-.18-.27-.31-.56-.46-.84,0-.06-.07-.13-.14-.13h0a.13.13,0,0,0-.09,0,1.7,1.7,0,0,0-.17.23c-.32.59-.63,1.19-.94,1.78,0,.07-.07.13-.1.19a.23.23,0,0,1-.2.14h-.06a.27.27,0,0,1-.22-.23C12.43,10.65,12.4,10.52,12.39,10.38Z"/><path d="M17.45,11.05a0,0,0,0,1,0,0c0-.46-.05-.91-.05-1.36a8.49,8.49,0,0,1,.13-1.58c0-.11,0-.23.13-.23h0c.14,0,.13.14.15.25v.05s0,0,0,.08a.18.18,0,0,1,0,.11h0s0,0-.05.06l0,.16a.25.25,0,0,0,0,.09,2.53,2.53,0,0,1,0,.27c0,.29,0,.57,0,.86v.05c0,.05,0,.09,0,.09s.07-.1.07-.13l0-.07,0-.07a16.62,16.62,0,0,1,.59-1.81,1.8,1.8,0,0,0,.08-.21c.05-.1.12-.19.23-.19h0a.25.25,0,0,1,.21.11.83.83,0,0,1,0,.22c0,.53,0,1.57.82,1.63H20a2.72,2.72,0,0,0,.63-.08c.16-.05.23.23.06.25a2.73,2.73,0,0,1-.5.06h-.28a1.23,1.23,0,0,1-1-.71,6,6,0,0,1-.23-1s0,0-.05.06a10.28,10.28,0,0,0-.83,3.24c0,.14,0,.13-.16.14h0a.14.14,0,0,1-.13-.07.65.65,0,0,1,0-.2Z"/><path d="M20.46,10.05A4.47,4.47,0,0,1,20.61,9a.13.13,0,0,1,.14-.12c.13,0,.19.05.19.12V9a5.58,5.58,0,0,0-.17,1.2c0,.37.07.7.34.76h.08c.63,0,1.73-1.26,2-1.7.05-.08.09-.2.18-.2h0s.12,0,.12.07h0c-.34.62-1.59,2.06-2.36,2.06h-.12C20.6,11.1,20.46,10.58,20.46,10.05Zm.36-1.58a.14.14,0,0,1-.13-.15h0a2.65,2.65,0,0,1,.07-.48c0-.09.23-.06.28,0s0,0,0,0v0l-.12.44C20.9,8.44,20.86,8.47,20.82,8.47Z"/><path d="M23,10.24a2.31,2.31,0,0,1,.09-.65,3.71,3.71,0,0,1,1-1.8l.18-.11a.77.77,0,0,1,.19,0,.41.41,0,0,1,.36.23s0,0,0,0h0c.08-.05.09-.18.15-.24h.09c.09,0,.17.06.17.15a.16.16,0,0,1,0,.1,18.19,18.19,0,0,0-.42,2.83l.37-.21,2.36-1.46a.62.62,0,0,1,.26-.1h0a.24.24,0,0,1,.09.13s-.06.07-.08.08l0,0-.76.49-.3.19-.31.19-.11.07h0L25,11.05a.39.39,0,0,0-.19.36,1.5,1.5,0,0,0,0,.2.67.67,0,0,0,.3.52,2,2,0,0,1,.66,1.28,5.37,5.37,0,0,1-.1,2.69.21.21,0,0,1-.19.18c-.14,0-.31-.14-.43-.39A8,8,0,0,1,24.52,13c0-.3,0-.58,0-.84,0-.05,0-.07,0-.12l-.05,0h0a.24.24,0,0,0-.12,0h-.12a1.31,1.31,0,0,0-.67.2.3.3,0,0,1-.16.08.18.18,0,0,1-.09,0,.18.18,0,0,1-.09-.14v0s0-.07.07-.1l.1-.06.13-.1.95-.68a.43.43,0,0,0,.14-.21c.07-.55.12-1.09.19-1.64v0s0-.05-.05-.06h0c-.05,0-.1.1-.13.14s-.13.18-.18.27l-.51.73-.18.27c-.09.11-.16.19-.28.2l-.15,0A.55.55,0,0,1,23,10.24Zm.24,0a.34.34,0,0,0,0,.1.11.11,0,0,0,.13.1h0s.06,0,.08-.05l0,0a7.34,7.34,0,0,0,.68-1h0l.36-.66h0a1.4,1.4,0,0,0,.17-.57,1,1,0,0,0,0-.17.18.18,0,0,0-.16-.11.46.46,0,0,0-.25.1,2.1,2.1,0,0,0-.36.37,3.7,3.7,0,0,0-.41.79A3,3,0,0,0,23.24,10.27Zm1.26,1.25s0,0,0,0,0,0,0,0h-.09l-.22.17s-.1.06-.1.09h.4a.19.19,0,0,0,0-.08.25.25,0,0,0,0-.08Zm.33.69,0,0s0,.07,0,.13v.21a11.65,11.65,0,0,0,.48,3.24.1.1,0,0,0,.11.06s.06,0,.06,0,0-.1,0-.12a7.91,7.91,0,0,0,.08-1.82v0a3.19,3.19,0,0,0-.35-1.3c-.05-.1-.21-.32-.32-.35Z"/><path d="M27.91,11a.4.4,0,0,1-.42-.36,3.83,3.83,0,0,1,0-.47,3.65,3.65,0,0,1,.27-1.38c0-.09.07-.14.12-.14l.13,0a.1.1,0,0,1,.08.1,4.21,4.21,0,0,1-.17.49,3.11,3.11,0,0,0-.16.9,2.64,2.64,0,0,0,0,.38c0,.07,0,.18.11.17H28c.14-.06.35-.45.41-.57l.69-1.36a.21.21,0,0,1,.18-.15.23.23,0,0,1,.22.21,3.07,3.07,0,0,0,.3,1.73.36.36,0,0,0,.31.16.45.45,0,0,0,.24-.09,5.1,5.1,0,0,0,1.31-1.54s.06-.08.09-.09h0c.06,0,.16,0,.16.09a.28.28,0,0,1-.05.12,5.29,5.29,0,0,1-1.13,1.49,1.21,1.21,0,0,1-.58.25.81.81,0,0,1-.71-.41c-.31-.5-.22-1.12-.3-1.13h0s-.05,0-.07.05l-.6,1.12a2.38,2.38,0,0,1-.22.27A.43.43,0,0,1,27.91,11Z"/><path d="M32.28,11a.89.89,0,0,1-.81-.76,1.47,1.47,0,0,1,0-.36,2.73,2.73,0,0,1,.06-.5A3.53,3.53,0,0,1,32.08,8s0,0,.07-.07a.46.46,0,0,1,.34-.15l.13,0a.41.41,0,0,1,.18.36.34.34,0,0,1,0,.1,1.63,1.63,0,0,1-.43.82c-.15.15-.32.27-.48.41a.39.39,0,0,0-.13.2,1.23,1.23,0,0,0,0,.27,1.53,1.53,0,0,0,.07.47c.07.24.19.37.38.39a.66.66,0,0,0,.29-.05,1.44,1.44,0,0,0,.49-.26A5.83,5.83,0,0,0,34.38,9a.08.08,0,0,1,.08,0,.15.15,0,0,1,.15.13.09.09,0,0,1,0,.05l-.16.24a5.37,5.37,0,0,1-1.17,1.21,1.9,1.9,0,0,1-.64.36A1.06,1.06,0,0,1,32.28,11Zm-.41-1.93a0,0,0,0,0,0,0h0l.08,0A.27.27,0,0,1,32.07,9a1.39,1.39,0,0,0,.37-.63,1.11,1.11,0,0,0,.05-.24.35.35,0,0,0,0-.06h0s0,.06-.07.08h0a3,3,0,0,0-.47.88S31.87,9.07,31.87,9.08Z"/><path d="M41.31,6.62c-.78.07-1.56.17-2.35.24l-.77,0c-.41,0-1.43.06-1.75-.24a.38.38,0,0,1-.14-.27c0-.26.33-.5.56-.63a6.64,6.64,0,0,1,1.25-.54,21.49,21.49,0,0,1,2.37-.7l1.89-.42c.07,0,.23,0,.26-.11a1.54,1.54,0,0,0,0-.31c0-.26,0-.51.07-.78,0-.07,0-.28.07-.33l.11,0a.25.25,0,0,1,.12,0,.11.11,0,0,1,0,.1v.07s0,.08,0,.12h0c0,.2,0,.4-.05.6a2.24,2.24,0,0,0,0,.39s0,.06,0,.07,0,.06.09.06h.41l1.72-.18A13.47,13.47,0,0,1,46.8,3.7c.22,0,1,0,1,.36,0,.07,0,.12-.08.15h0a.21.21,0,0,1-.13-.07.58.58,0,0,0-.18-.08A2.23,2.23,0,0,0,47,4l-.84,0c-.35,0-.7,0-1.05.07s-.71.06-1.06.11a8.66,8.66,0,0,0-.87.12.3.3,0,0,0-.15.07,1.09,1.09,0,0,0,0,.17l-.06.51a11.25,11.25,0,0,0,0,1.16c0,.08,0,.13.1.14h.13c.06,0,.14,0,.15,0v0s0,0,0,0H43c-.07,0-.1,0-.11.11a.76.76,0,0,0,0,.16h0s0,0,0,.07a.4.4,0,0,0,0,.11c0,.11,0,.21,0,.31V7.4a.28.28,0,0,0,.06.21.24.24,0,0,0,.17,0h.08c.26,0,.53-.07.8-.09a8.73,8.73,0,0,1,2,0,.14.14,0,0,1,.11.14c0,.09-.06.2-.13.2h0a7.68,7.68,0,0,0-1.78,0c-.32,0-.68.07-1.07.14-.19,0-.21.06-.2.25.07,1.59.13,3.17.21,4.76,0,.71.13,1.41.18,2.11,0,0,0,.1,0,.11l-.1,0H43l-.07-.06h0a.87.87,0,0,1,0-.22l-.06-.22a5.87,5.87,0,0,0-.18-.75c-.52-1.64-1.84-2.37-3.12-3.27a1.19,1.19,0,0,1-.61-.88c0-.61.68-1.15,1.39-1.43A12.26,12.26,0,0,1,41.86,8a4.21,4.21,0,0,0,.42-.12c.23-.07.25-.18.26-.42s0-.36,0-.55V6.8a.42.42,0,0,0,0-.18s-.14,0-.2,0-.24,0-.35,0Zm-4.6-.37c-.07.07-.11.15-.2.26a10.94,10.94,0,0,0,3.34.12l1.07-.07,1.43-.13h0s.11,0,.12,0a.63.63,0,0,0,0-.19V6a.08.08,0,0,0,0-.07l.07-1.26V4.64c0-.1,0-.16-.15-.15h0l-.79.12-.61.13c-.82.18-1.66.4-2.47.66A9.18,9.18,0,0,0,37.19,6a2.83,2.83,0,0,0-.47.29Zm5.8,2.09c0-.15,0-.18-.16-.17h-.08l-.13,0a3.58,3.58,0,0,0-.35.09c-.69.14-2.71.75-2.66,1.62a1.06,1.06,0,0,0,.52.74l1.13.78a4.59,4.59,0,0,1,1.35,1.25c.19.28.38.58.56.87,0,0,0,0,.05,0h0s0,0,0-.06v0c0-.11,0-.23,0-.34-.06-.6-.1-1.2-.13-1.8s-.06-1.44-.08-2.16c0-.27,0-.55,0-.84Z"/><path d="M48.85,10.27c-.24.45-.9,1.55-1.5,1.7l-.24,0a1,1,0,0,1-.94-1c0-.1,0-.22,0-.33a3.55,3.55,0,0,1,.62-2,1.67,1.67,0,0,1,.33-.32.33.33,0,0,1,.22-.08.33.33,0,0,1,.34.34v.1a1.67,1.67,0,0,1-1,1.5c-.18.07-.19.14-.2.33v.05a4.12,4.12,0,0,0,.1.77c.1.3.28.45.49.45a.74.74,0,0,0,.44-.18,8.36,8.36,0,0,0,2-3.58.47.47,0,0,0,0-.16.38.38,0,0,0-.07-.23.77.77,0,0,1-.12-.45c0-.3.11-.59.34-.64h0c.2,0,.26.23.26.36s0,.09,0,.14a4,4,0,0,1-.07.61c0,.08,0,.12.23.2a.92.92,0,0,1,.65.84c.08.43.11.85.18,1.28a9.7,9.7,0,0,0,.23,1.07c0,.19.14.26.25.26.52,0,1.57-1.76,1.7-2.15a.15.15,0,0,1,.14-.1.1.1,0,0,1,.11.1l0,.07a6.68,6.68,0,0,1-1.6,2.25.8.8,0,0,1-.3.06.62.62,0,0,1-.58-.42c-.25-.59-.29-1.85-.53-2.63-.06-.21-.29-.44-.47-.44h0s-.07.12-.08.17A11.31,11.31,0,0,1,48.85,10.27Zm-2.29-.45s0,.07.06.07a1.34,1.34,0,0,0,.76-1,.75.75,0,0,0,0-.2c0-.13,0-.18-.09-.18s-.56.49-.74,1.2A.13.13,0,0,0,46.56,9.82Z"/><path d="M53.11,11.05a0,0,0,0,1,0,0c0-.46-.05-.91-.05-1.36a8.49,8.49,0,0,1,.13-1.58c0-.11,0-.23.13-.23h0c.14,0,.13.14.15.25v.05s0,0,0,.08a.18.18,0,0,1,0,.11h0s0,0-.05.06l0,.16a.25.25,0,0,0,0,.09,2.53,2.53,0,0,1,0,.27c0,.29,0,.57,0,.86v.05c0,.05,0,.09,0,.09s.07-.1.07-.13l0-.07,0-.07a16.62,16.62,0,0,1,.59-1.81,1.8,1.8,0,0,0,.08-.21c.05-.1.12-.19.23-.19h0a.25.25,0,0,1,.21.11.83.83,0,0,1,0,.22c0,.53,0,1.57.82,1.63h.19a2.72,2.72,0,0,0,.63-.08c.16-.05.23.23.06.25a2.73,2.73,0,0,1-.5.06h-.28a1.2,1.2,0,0,1-1-.71,5.54,5.54,0,0,1-.24-1s0,0,0,.06a10.28,10.28,0,0,0-.83,3.24c0,.14,0,.13-.16.14h0a.14.14,0,0,1-.13-.07.65.65,0,0,1,0-.2Z"/><path d="M56.94,11a.88.88,0,0,1-.81-.76,1.47,1.47,0,0,1,0-.36,2.73,2.73,0,0,1,0-.5A3.55,3.55,0,0,1,56.74,8l.06-.07a.47.47,0,0,1,.34-.15l.14,0a.41.41,0,0,1,.18.36.34.34,0,0,1,0,.1,1.64,1.64,0,0,1-.44.82c-.14.15-.32.27-.48.41a.46.46,0,0,0-.13.2,2.45,2.45,0,0,0,0,.27,1.53,1.53,0,0,0,.07.47c.08.24.2.37.39.39a.68.68,0,0,0,.29-.05,1.66,1.66,0,0,0,.49-.26A5.83,5.83,0,0,0,59,9s0,0,.07,0a.15.15,0,0,1,.16.13s0,0,0,.05a1.67,1.67,0,0,1-.16.24,5.12,5.12,0,0,1-1.16,1.21,2,2,0,0,1-.64.36A1.06,1.06,0,0,1,56.94,11Zm-.41-1.93s0,0,0,0h0s.06,0,.09,0L56.72,9a1.5,1.5,0,0,0,.38-.63,1.19,1.19,0,0,0,0-.24s0-.05,0-.06h0a.6.6,0,0,0-.08.08h0a3,3,0,0,0-.47.88A.06.06,0,0,0,56.53,9.08Z"/><path d="M59.82,11.9h0a.78.78,0,0,1-.69-.41,2.9,2.9,0,0,1-.31-1.41c0-.29,0-.58,0-.84s0-.24,0-.36.08-.1.15-.1.17,0,.18.1v0a10,10,0,0,0-.13,1.3,2.72,2.72,0,0,0,.28,1.26.34.34,0,0,0,.31.23.65.65,0,0,0,.4-.21,5.55,5.55,0,0,0,1.11-2A4.12,4.12,0,0,0,61.47,8a.14.14,0,0,0,0-.11c0-.07,0,0-.1-.1a.79.79,0,0,1-.4-.68v0a.26.26,0,0,1,.27-.28.4.4,0,0,1,.35.25,3.21,3.21,0,0,1,.2.62s0,.07.05.09l.07,0H62c.42.06.73.14.8.62s.06,1,.19,1.74a1.43,1.43,0,0,0,.14.34c.09.16.18.24.3.24a.39.39,0,0,0,.2,0,2.91,2.91,0,0,0,1.47-1.4c0-.06,0-.16.1-.16l.07,0a.13.13,0,0,1,.08.12.32.32,0,0,1,0,.14,2.87,2.87,0,0,1-1.49,1.5.64.64,0,0,1-.24.05.78.78,0,0,1-.64-.34,1.54,1.54,0,0,1-.3-.76c0-.37-.07-.73-.1-1.1a3.8,3.8,0,0,0-.05-.46c-.06-.26-.17-.28-.42-.29h-.12l-.1,0s0,0,0,0a.24.24,0,0,0,0,.09.25.25,0,0,0,0,.09,5.89,5.89,0,0,1-1.07,3C60.44,11.52,60.26,11.9,59.82,11.9Zm-.65-4h0a.19.19,0,0,1,.11.14h0a1.85,1.85,0,0,1-.11.42l0,0v0a.15.15,0,0,1-.07,0h0A.13.13,0,0,1,59,8.5a.18.18,0,0,1,0-.1c0-.13,0-.27,0-.4a.05.05,0,0,1,0,0A.28.28,0,0,1,59.17,7.92Zm2.26-.5c0-.07,0-.23-.11-.26l0,0,0,0a.3.3,0,0,0,0,.1.29.29,0,0,0,0,.14h0a.53.53,0,0,0,.11.15.05.05,0,0,0,0,0s0,0,0,0A.76.76,0,0,0,61.43,7.42Z"/><path d="M65.24,11a.36.36,0,0,1-.28-.22,1.66,1.66,0,0,1-.06-.21v-.06a3.47,3.47,0,0,1,.41-1.83c.11-.2.22-.29.39-.29a1.26,1.26,0,0,1,.29,0c.05-.08.08-.13.14-.13l.11,0c.08,0,.11.07.11.13v.68c0,.38,0,.76,0,1.14l0,.36c0,.16,0,.32.08.49a1.06,1.06,0,0,0,.19.51s0,0,.08,0h.05a.11.11,0,0,0,.09,0l.05-.06c.23-.35.46-.69.66-1.06s.53-1,.76-1.45a.13.13,0,0,1,.1-.07.13.13,0,0,1,.12.1.17.17,0,0,1,0,.07c-.34.78-.72,1.47-1.12,2.21a2,2,0,0,1-.34.46.38.38,0,0,1-.28.12.31.31,0,0,1-.18,0,.58.58,0,0,1-.19-.19,1.57,1.57,0,0,1-.25-.58,3.06,3.06,0,0,1-.1-.51,5,5,0,0,1,0-.86v0s0-.05,0-.05h0a.13.13,0,0,0,0,.08c-.07.16-.12.32-.19.48a5.09,5.09,0,0,1-.22.54.5.5,0,0,1-.22.21Zm-.06-.47a.11.11,0,0,1,0,.05h.08a.1.1,0,0,0,0-.05h0c.16-.45.33-.9.48-1.36a2.12,2.12,0,0,0,.11-.45v0a.25.25,0,0,0,0-.11h-.05l-.06,0a1.08,1.08,0,0,0-.21.22,3.23,3.23,0,0,0-.37,1.35C65.18,10.21,65.17,10.42,65.18,10.53Z"/></g></g></svg>